<mxfile host="Electron" agent="Mozilla/5.0 (Windows NT 10.0; Win64; x64) AppleWebKit/537.36 (KHTML, like Gecko) draw.io/24.7.5 Chrome/126.0.6478.183 Electron/31.3.0 Safari/537.36" version="24.7.5">
  <diagram name="Page-1" id="8EkGqibCvBHoBTu_bCx6">
    <mxGraphModel dx="470" dy="319" grid="1" gridSize="10" guides="1" tooltips="1" connect="1" arrows="1" fold="1" page="1" pageScale="1" pageWidth="850" pageHeight="1100" math="0" shadow="0">
      <root>
        <mxCell id="0" />
        <mxCell id="1" parent="0" />
        <mxCell id="61Gtb_rmeDHRGXsxD0hD-5" value="&lt;font style=&quot;font-size: 9px;&quot;&gt;w = 3.7 meters&lt;/font&gt;" style="text;html=1;align=center;verticalAlign=middle;whiteSpace=wrap;rounded=0;" parent="1" vertex="1">
          <mxGeometry x="100" y="10" width="90" height="20" as="geometry" />
        </mxCell>
        <mxCell id="61Gtb_rmeDHRGXsxD0hD-7" value="" style="endArrow=none;html=1;rounded=0;strokeWidth=3;strokeColor=#0000FF;" parent="1" edge="1">
          <mxGeometry width="50" height="50" relative="1" as="geometry">
            <mxPoint x="210" y="93.52" as="sourcePoint" />
            <mxPoint x="130" y="93.52" as="targetPoint" />
          </mxGeometry>
        </mxCell>
        <mxCell id="61Gtb_rmeDHRGXsxD0hD-8" value="" style="endArrow=none;html=1;rounded=0;strokeWidth=3;strokeColor=#000000;dashed=1;dashPattern=1 1;" parent="1" edge="1">
          <mxGeometry width="50" height="50" relative="1" as="geometry">
            <mxPoint x="53" y="112" as="sourcePoint" />
            <mxPoint x="113" y="68" as="targetPoint" />
          </mxGeometry>
        </mxCell>
        <mxCell id="61Gtb_rmeDHRGXsxD0hD-9" value="w" style="text;html=1;align=center;verticalAlign=middle;whiteSpace=wrap;rounded=0;" parent="1" vertex="1">
          <mxGeometry x="190" y="64" width="30" height="20" as="geometry" />
        </mxCell>
        <mxCell id="61Gtb_rmeDHRGXsxD0hD-11" value="" style="endArrow=classic;startArrow=classic;html=1;rounded=0;endSize=3;startSize=3;jumpSize=5;" parent="1" edge="1">
          <mxGeometry width="50" height="50" relative="1" as="geometry">
            <mxPoint x="200" y="93.52" as="sourcePoint" />
            <mxPoint x="200" y="60" as="targetPoint" />
          </mxGeometry>
        </mxCell>
        <mxCell id="61Gtb_rmeDHRGXsxD0hD-13" value="" style="endArrow=none;html=1;rounded=0;strokeWidth=3;" parent="1" edge="1">
          <mxGeometry width="50" height="50" relative="1" as="geometry">
            <mxPoint x="260" y="27" as="sourcePoint" />
            <mxPoint x="240" y="27" as="targetPoint" />
            <Array as="points" />
          </mxGeometry>
        </mxCell>
        <mxCell id="61Gtb_rmeDHRGXsxD0hD-14" value="" style="endArrow=none;html=1;rounded=0;strokeWidth=3;dashed=1;dashPattern=1 1;" parent="1" edge="1">
          <mxGeometry width="50" height="50" relative="1" as="geometry">
            <mxPoint x="260" y="48" as="sourcePoint" />
            <mxPoint x="240" y="48" as="targetPoint" />
            <Array as="points" />
          </mxGeometry>
        </mxCell>
        <mxCell id="61Gtb_rmeDHRGXsxD0hD-17" value="&lt;font style=&quot;font-size: 7px;&quot;&gt;Line 1&lt;/font&gt;" style="text;html=1;align=center;verticalAlign=middle;whiteSpace=wrap;rounded=0;" parent="1" vertex="1">
          <mxGeometry x="255" y="20" width="85" height="10" as="geometry" />
        </mxCell>
        <mxCell id="61Gtb_rmeDHRGXsxD0hD-20" value="&lt;font style=&quot;font-size: 7px;&quot;&gt;Shifted Line 1&lt;/font&gt;" style="text;html=1;align=center;verticalAlign=middle;whiteSpace=wrap;rounded=0;" parent="1" vertex="1">
          <mxGeometry x="255" y="41" width="95" height="10" as="geometry" />
        </mxCell>
        <mxCell id="61Gtb_rmeDHRGXsxD0hD-21" value="" style="endArrow=none;html=1;rounded=0;strokeWidth=3;strokeColor=#0000FF;" parent="1" edge="1">
          <mxGeometry width="50" height="50" relative="1" as="geometry">
            <mxPoint x="260" y="70" as="sourcePoint" />
            <mxPoint x="240" y="70" as="targetPoint" />
            <Array as="points" />
          </mxGeometry>
        </mxCell>
        <mxCell id="61Gtb_rmeDHRGXsxD0hD-22" value="" style="endArrow=none;html=1;rounded=0;strokeWidth=3;dashed=1;dashPattern=1 1;strokeColor=#0000FF;" parent="1" edge="1">
          <mxGeometry width="50" height="50" relative="1" as="geometry">
            <mxPoint x="260" y="91" as="sourcePoint" />
            <mxPoint x="240" y="91" as="targetPoint" />
            <Array as="points" />
          </mxGeometry>
        </mxCell>
        <mxCell id="61Gtb_rmeDHRGXsxD0hD-23" value="&lt;font style=&quot;font-size: 7px;&quot;&gt;Line 2&lt;/font&gt;" style="text;html=1;align=center;verticalAlign=middle;whiteSpace=wrap;rounded=0;" parent="1" vertex="1">
          <mxGeometry x="255" y="63" width="85" height="10" as="geometry" />
        </mxCell>
        <mxCell id="61Gtb_rmeDHRGXsxD0hD-24" value="&lt;span style=&quot;font-size: 7px;&quot;&gt;Shifted Line 2&lt;/span&gt;" style="text;html=1;align=center;verticalAlign=middle;whiteSpace=wrap;rounded=0;" parent="1" vertex="1">
          <mxGeometry x="255" y="84" width="85" height="10" as="geometry" />
        </mxCell>
        <mxCell id="T7Vgl3qONszU4VpiQTLO-2" value="" style="endArrow=none;html=1;rounded=0;strokeWidth=3;strokeColor=#000000;" edge="1" parent="1">
          <mxGeometry width="50" height="50" relative="1" as="geometry">
            <mxPoint x="131" y="93.52" as="sourcePoint" />
            <mxPoint x="70" y="140" as="targetPoint" />
          </mxGeometry>
        </mxCell>
        <mxCell id="T7Vgl3qONszU4VpiQTLO-3" value="" style="endArrow=none;html=1;rounded=0;strokeWidth=3;strokeColor=#0000FF;dashed=1;dashPattern=1 1;" edge="1" parent="1">
          <mxGeometry width="50" height="50" relative="1" as="geometry">
            <mxPoint x="130" y="60" as="sourcePoint" />
            <mxPoint x="210" y="60" as="targetPoint" />
          </mxGeometry>
        </mxCell>
        <mxCell id="T7Vgl3qONszU4VpiQTLO-5" value="w" style="text;html=1;align=center;verticalAlign=middle;whiteSpace=wrap;rounded=0;" vertex="1" parent="1">
          <mxGeometry x="45" y="115" width="30" height="20" as="geometry" />
        </mxCell>
        <mxCell id="T7Vgl3qONszU4VpiQTLO-6" value="" style="endArrow=classic;startArrow=classic;html=1;rounded=0;endSize=3;startSize=3;jumpSize=5;" edge="1" parent="1">
          <mxGeometry width="50" height="50" relative="1" as="geometry">
            <mxPoint x="77.5" y="133" as="sourcePoint" />
            <mxPoint x="60" y="110" as="targetPoint" />
          </mxGeometry>
        </mxCell>
        <mxCell id="T7Vgl3qONszU4VpiQTLO-8" value="" style="endArrow=none;html=1;rounded=0;strokeWidth=1;strokeColor=#FF3333;" edge="1" parent="1">
          <mxGeometry width="50" height="50" relative="1" as="geometry">
            <mxPoint x="260" y="111" as="sourcePoint" />
            <mxPoint x="240" y="111" as="targetPoint" />
            <Array as="points" />
          </mxGeometry>
        </mxCell>
        <mxCell id="T7Vgl3qONszU4VpiQTLO-9" value="" style="endArrow=none;html=1;rounded=0;strokeWidth=2;dashed=1;dashPattern=1 1;strokeColor=#FFFF00;" edge="1" parent="1">
          <mxGeometry width="50" height="50" relative="1" as="geometry">
            <mxPoint x="260" y="132" as="sourcePoint" />
            <mxPoint x="240" y="132" as="targetPoint" />
            <Array as="points" />
          </mxGeometry>
        </mxCell>
        <mxCell id="T7Vgl3qONszU4VpiQTLO-10" value="&lt;font style=&quot;font-size: 7px;&quot;&gt;Angle Bisector&lt;/font&gt;" style="text;html=1;align=center;verticalAlign=middle;whiteSpace=wrap;rounded=0;" vertex="1" parent="1">
          <mxGeometry x="255" y="104" width="85" height="10" as="geometry" />
        </mxCell>
        <mxCell id="T7Vgl3qONszU4VpiQTLO-11" value="&lt;span style=&quot;font-size: 7px;&quot;&gt;Connection Arc Radius&lt;/span&gt;" style="text;html=1;align=center;verticalAlign=middle;whiteSpace=wrap;rounded=0;" vertex="1" parent="1">
          <mxGeometry x="255" y="125" width="85" height="10" as="geometry" />
        </mxCell>
        <mxCell id="T7Vgl3qONszU4VpiQTLO-12" value="" style="endArrow=none;html=1;rounded=0;strokeWidth=2;strokeColor=#FFFF00;dashed=1;dashPattern=1 1;" edge="1" parent="1">
          <mxGeometry width="50" height="50" relative="1" as="geometry">
            <mxPoint x="160" y="180" as="sourcePoint" />
            <mxPoint x="130" y="60" as="targetPoint" />
          </mxGeometry>
        </mxCell>
        <mxCell id="T7Vgl3qONszU4VpiQTLO-13" value="" style="endArrow=none;html=1;rounded=0;strokeWidth=2;strokeColor=#FFFF00;dashed=1;dashPattern=1 1;" edge="1" parent="1">
          <mxGeometry width="50" height="50" relative="1" as="geometry">
            <mxPoint x="160" y="180" as="sourcePoint" />
            <mxPoint x="113" y="68" as="targetPoint" />
          </mxGeometry>
        </mxCell>
        <mxCell id="T7Vgl3qONszU4VpiQTLO-14" value="R" style="text;html=1;align=center;verticalAlign=middle;whiteSpace=wrap;rounded=0;" vertex="1" parent="1">
          <mxGeometry x="140" y="114" width="30" height="20" as="geometry" />
        </mxCell>
        <mxCell id="T7Vgl3qONszU4VpiQTLO-15" value="R" style="text;html=1;align=center;verticalAlign=middle;whiteSpace=wrap;rounded=0;" vertex="1" parent="1">
          <mxGeometry x="110" y="125" width="30" height="20" as="geometry" />
        </mxCell>
        <mxCell id="T7Vgl3qONszU4VpiQTLO-16" value="" style="endArrow=none;html=1;rounded=0;strokeWidth=1;strokeColor=#FF3333;" edge="1" parent="1">
          <mxGeometry width="50" height="50" relative="1" as="geometry">
            <mxPoint x="113" y="40" as="sourcePoint" />
            <mxPoint x="160" y="180" as="targetPoint" />
          </mxGeometry>
        </mxCell>
        <mxCell id="T7Vgl3qONszU4VpiQTLO-19" value="" style="verticalLabelPosition=bottom;verticalAlign=top;html=1;shape=mxgraph.basic.arc;startAngle=0.9033221895757967;endAngle=0.9682744825694465;strokeColor=#00FF00;" vertex="1" parent="1">
          <mxGeometry x="90" y="59" width="100" height="100" as="geometry" />
        </mxCell>
        <mxCell id="T7Vgl3qONszU4VpiQTLO-20" value="" style="endArrow=none;html=1;rounded=0;strokeWidth=3;strokeColor=#00FF00;" edge="1" parent="1">
          <mxGeometry width="50" height="50" relative="1" as="geometry">
            <mxPoint x="260" y="152" as="sourcePoint" />
            <mxPoint x="240" y="152" as="targetPoint" />
            <Array as="points" />
          </mxGeometry>
        </mxCell>
        <mxCell id="T7Vgl3qONszU4VpiQTLO-21" value="&lt;font style=&quot;font-size: 7px;&quot;&gt;Connection Arc&lt;/font&gt;" style="text;html=1;align=center;verticalAlign=middle;whiteSpace=wrap;rounded=0;" vertex="1" parent="1">
          <mxGeometry x="255" y="145" width="85" height="10" as="geometry" />
        </mxCell>
      </root>
    </mxGraphModel>
  </diagram>
</mxfile>
